<?xml version="1.0" encoding="UTF-8"?>
<svg xmlns="http://www.w3.org/2000/svg" viewBox="0 0 256 256" fill="currentColor">
  <path d="M136 80v40a8 8 0 0 1-8 8H88a8 8 0 0 1 0-16h32V80a8 8 0 0 1 16 0zm-8 48a8 8 0 0 0 0 16h32v32a8 8 0 0 0 16 0v-32h32a8 8 0 0 0 0-16h-32v-32a8 8 0 0 0-16 0v32h-32zm-32-32a8 8 0 0 0-8 8v80a8 8 0 0 0 16 0v-80a8 8 0 0 0-8-8zm128 80a8 8 0 0 0-8 8 88 88 0 0 1-169.5 33.6 8 8 0 1 0-15.4 4.4A104 104 0 0 0 224 184a8 8 0 0 0-8-8zm-200-32a8 8 0 0 0 8-8 88 88 0 0 1 169.5-33.6 8 8 0 1 0 15.4-4.4A104 104 0 0 0 32 136a8 8 0 0 0 8 8z"/>
</svg>
