<?xml version="1.0" encoding="UTF-8"?>
<svg xmlns="http://www.w3.org/2000/svg" viewBox="0 0 256 256" fill="currentColor">
  <path d="M128 80a48 48 0 1 0 48 48 48 48 0 0 0-48-48zm0 80a32 32 0 1 1 32-32 32 32 0 0 1-32 32zm88-29.8a8 8 0 0 0-3.2-6.4l-19.3-14.4a73.6 73.6 0 0 0-1.5-3.4l8.8-22.9a8 8 0 0 0-2.6-9.4L181 70.4a8 8 0 0 0-9.6-.4l-19.3 13.4a73.6 73.6 0 0 0-3.4-1.5l-5.8-23.2a8 8 0 0 0-7.7-6.1h-23.4a8 8 0 0 0-7.7 6.1l-5.8 23.2a73.6 73.6 0 0 0-3.4 1.5L75.6 70a8 8 0 0 0-9.6.4L52.4 80.6a8 8 0 0 0-2.6 9.4l8.8 22.9a73.6 73.6 0 0 0-1.5 3.4L37.2 130.7a8 8 0 0 0-3.2 6.4v18.6a8 8 0 0 0 3.2 6.4l19.3 14.4a73.6 73.6 0 0 0 1.5 3.4l-8.8 22.9a8 8 0 0 0 2.6 9.4L66 222.6a8 8 0 0 0 9.6.4l19.3-13.4a73.6 73.6 0 0 0 3.4 1.5l5.8 23.2a8 8 0 0 0 7.7 6.1h23.4a8 8 0 0 0 7.7-6.1l5.8-23.2a73.6 73.6 0 0 0 3.4-1.5l19.3 13.4a8 8 0 0 0 9.6-.4l13.6-10.4a8 8 0 0 0 2.6-9.4l-8.8-22.9a73.6 73.6 0 0 0 1.5-3.4l19.3-14.4a8 8 0 0 0 3.2-6.4z"/>
</svg>
