<?xml version="1.0" encoding="UTF-8"?>
<svg xmlns="http://www.w3.org/2000/svg" viewBox="0 0 256 256" fill="currentColor">
  <path d="M248 128a8 8 0 0 1-8 8H192v24a8 8 0 0 1-13 6.2l-40-32a8 8 0 0 1 0-12.4l40-32A8 8 0 0 1 192 96v24h32a8 8 0 0 1 8 8zM77.7 50.3A8 8 0 0 0 72 64v24H32a8 8 0 0 0 0 16h40a8 8 0 0 0 8-8V72l40 32v48l-40 32v-24a8 8 0 0 0-8-8H32a8 8 0 0 0 0 16h32v24a8 8 0 0 0 12.9 6.2l40-32a8 8 0 0 0 3.1-6.2v-64a8 8 0 0 0-3.1-6.2l-40-32zM152 100v56a8 8 0 0 0 12.6 6.5l32-24a8 8 0 0 0 0-13l-32-24A8 8 0 0 0 152 100z"/>
</svg>
